<svg width="304.1" height="71.501" viewBox="0 0 304.1 71.501" xmlns="http://www.w3.org/2000/svg"><g id="svgGroup" stroke-linecap="round" fill-rule="evenodd" font-size="9pt" stroke="#000" stroke-width="0.25mm" fill="#000" style="stroke:#000;stroke-width:0.25mm;fill:#000"><path d="M 252.3 1 L 217.4 35.6 L 240.8 70.8 L 223 70.8 L 203.2 39.7 L 197.7 70.8 L 183.6 70.8 L 196 1 L 210 1 L 204.5 32.3 L 235.4 1 L 252.3 1 Z M 125.3 50.7 L 139.6 50.7 A 11.403 11.403 0 0 0 139.548 51.71 Q 139.537 53.461 140.105 54.926 A 7.843 7.843 0 0 0 141.85 57.6 A 8.457 8.457 0 0 0 145.481 59.746 Q 147.289 60.3 149.6 60.3 A 19.589 19.589 0 0 0 152.784 60.058 Q 154.499 59.775 155.884 59.162 A 9.544 9.544 0 0 0 157.65 58.15 Q 160.6 56 160.6 52 A 7.199 7.199 0 0 0 159.93 48.861 Q 159.242 47.418 157.846 46.323 A 9.137 9.137 0 0 0 157.55 46.1 A 24.83 24.83 0 0 0 155.435 44.75 Q 153.242 43.486 150.049 42.077 A 101.852 101.852 0 0 0 148 41.2 A 140.608 140.608 0 0 1 143.978 39.455 Q 140.652 37.946 138.25 36.6 A 19.237 19.237 0 0 1 132.271 31.326 A 22.386 22.386 0 0 1 131.85 30.75 A 13.994 13.994 0 0 1 129.637 25.61 Q 129.214 23.678 129.2 21.445 A 24.356 24.356 0 0 1 129.2 21.3 A 21.211 21.211 0 0 1 130.077 15.093 A 18.007 18.007 0 0 1 132.55 10 A 21.115 21.115 0 0 1 139.983 3.467 A 25.795 25.795 0 0 1 141.75 2.6 Q 147.6 0 155.1 0 A 37.774 37.774 0 0 1 161.202 0.469 Q 164.741 1.049 167.71 2.344 A 23.64 23.64 0 0 1 167.95 2.45 A 20.132 20.132 0 0 1 172.596 5.305 A 16.458 16.458 0 0 1 176.15 9.4 A 16.451 16.451 0 0 1 178.486 16.767 Q 178.551 17.569 178.551 18.401 A 22.543 22.543 0 0 1 178.5 19.9 L 163.6 19.9 L 163.7 18.8 A 7.219 7.219 0 0 0 163.134 15.906 A 6.884 6.884 0 0 0 161.25 13.4 Q 159.136 11.589 155.572 11.34 A 16.836 16.836 0 0 0 154.4 11.3 Q 150.444 11.3 147.763 12.859 A 9.455 9.455 0 0 0 146.8 13.5 A 7.002 7.002 0 0 0 143.945 18.575 A 9.23 9.23 0 0 0 143.9 19.5 Q 143.9 22 145.55 23.85 A 15.015 15.015 0 0 0 148.447 26.344 A 17.885 17.885 0 0 0 149.6 27.05 Q 151.438 28.084 154.506 29.557 A 201.214 201.214 0 0 0 156.5 30.5 A 120.837 120.837 0 0 1 160.63 32.408 Q 162.527 33.331 164.135 34.213 A 55.91 55.91 0 0 1 166.2 35.4 Q 170 37.7 172.7 41.5 A 14.41 14.41 0 0 1 175.13 47.49 A 19.497 19.497 0 0 1 175.4 50.8 Q 175.4 56.8 172.15 61.5 Q 168.9 66.2 162.95 68.85 Q 157 71.5 149.1 71.5 A 38.079 38.079 0 0 1 141.61 70.804 Q 136.016 69.682 131.85 66.75 A 15.082 15.082 0 0 1 125.249 55.869 A 19.924 19.924 0 0 1 125.1 53.4 Q 125.1 52.711 125.217 51.495 A 54.892 54.892 0 0 1 125.3 50.7 Z M 98.4 70.8 L 96.2 57.5 L 68.3 57.5 L 61.4 70.8 L 46.7 70.8 L 84.2 0.9 L 100.5 0.9 L 113.2 70.8 L 98.4 70.8 Z M 2 1 L 53.2 1 L 51.2 12 L 32.7 12 L 22.3 70.8 L 8.2 70.8 L 18.6 12 L 0 12 L 2 1 Z M 262.3 1 L 276.3 1 L 264 70.8 L 249.9 70.8 L 262.3 1 Z M 290.1 1 L 304.1 1 L 291.8 70.8 L 277.7 70.8 L 290.1 1 Z M 74 46.6 L 94.4 46.6 L 89.4 17 L 74 46.6 Z" vector-effect="non-scaling-stroke"/></g></svg>