<svg width="127" height="28.76" viewBox="0 0 127 28.76" xmlns="http://www.w3.org/2000/svg"><g id="svgGroup" stroke-linecap="round" fill-rule="nonzero" font-size="9pt" stroke="#000" stroke-width="0.25mm" fill="#000" style="stroke:#000;stroke-width:0.25mm;fill:#000"><path d="M 104.72 0.4 L 91.4 14.16 L 100.16 28.48 L 91.8 28.48 L 84.56 16.08 L 82.36 28.48 L 75.52 28.48 L 80.48 0.4 L 87.32 0.4 L 85.16 12.72 L 96.72 0.4 L 104.72 0.4 Z M 51.6 20.08 L 58.72 20.08 A 4.753 4.753 0 0 0 58.705 20.405 Q 58.692 21.696 59.44 22.48 Q 60.138 23.211 61.443 23.335 A 5.907 5.907 0 0 0 62 23.36 Q 63.139 23.36 63.926 22.998 A 2.881 2.881 0 0 0 64.46 22.68 A 2.202 2.202 0 0 0 65.346 21.062 A 3.147 3.147 0 0 0 65.36 20.76 A 2.364 2.364 0 0 0 64.533 18.928 A 3.346 3.346 0 0 0 64.22 18.68 A 9.804 9.804 0 0 0 63.432 18.188 Q 62.368 17.583 60.68 16.88 A 44.147 44.147 0 0 1 59.092 16.189 Q 58.379 15.86 57.774 15.544 A 19.789 19.789 0 0 1 56.9 15.06 A 8.303 8.303 0 0 1 54.645 13.091 A 9.705 9.705 0 0 1 54.36 12.72 A 5.476 5.476 0 0 1 53.432 10.574 A 7.749 7.749 0 0 1 53.28 9 A 10.542 10.542 0 0 1 53.279 8.847 Q 53.279 7.474 53.641 6.281 A 7.509 7.509 0 0 1 54.64 4.2 A 8.674 8.674 0 0 1 57.844 1.403 A 10.661 10.661 0 0 1 58.52 1.08 A 12.803 12.803 0 0 1 61.856 0.158 A 16.745 16.745 0 0 1 64.2 0 A 15.725 15.725 0 0 1 66.9 0.222 A 11.996 11.996 0 0 1 69.32 0.9 A 8.807 8.807 0 0 1 71.255 1.96 A 7.074 7.074 0 0 1 72.8 3.5 A 6.454 6.454 0 0 1 74.01 6.81 A 8.174 8.174 0 0 1 74.04 7.52 Q 74.04 7.994 74.015 8.268 A 2.614 2.614 0 0 1 74 8.4 L 66.72 8.4 A 0.998 0.998 0 0 0 66.739 8.297 Q 66.755 8.185 66.759 8.023 A 4.498 4.498 0 0 0 66.76 7.92 A 2.611 2.611 0 0 0 66.612 7.024 A 2.267 2.267 0 0 0 65.98 6.1 A 2.606 2.606 0 0 0 64.902 5.529 Q 64.514 5.424 64.055 5.405 A 5.02 5.02 0 0 0 63.84 5.4 A 4.838 4.838 0 0 0 62.836 5.499 Q 62.063 5.663 61.5 6.1 A 2.239 2.239 0 0 0 60.612 7.735 A 2.988 2.988 0 0 0 60.6 8 A 2.302 2.302 0 0 0 61.336 9.696 A 3.48 3.48 0 0 0 61.72 10.02 Q 62.655 10.705 64.456 11.571 A 42.724 42.724 0 0 0 65.2 11.92 Q 66.907 12.701 68.164 13.398 A 23.831 23.831 0 0 1 69.06 13.92 A 8.614 8.614 0 0 1 71.469 16.143 A 9.947 9.947 0 0 1 71.64 16.38 A 5.86 5.86 0 0 1 72.598 18.734 A 8.002 8.002 0 0 1 72.72 20.16 Q 72.72 22.64 71.4 24.6 Q 70.08 26.56 67.6 27.66 A 12.442 12.442 0 0 1 64.544 28.55 A 17.059 17.059 0 0 1 61.8 28.76 A 17.183 17.183 0 0 1 58.68 28.493 Q 56.89 28.163 55.452 27.422 A 9.591 9.591 0 0 1 54.38 26.78 A 6.295 6.295 0 0 1 51.59 22.257 A 8.367 8.367 0 0 1 51.52 21.16 Q 51.52 20.885 51.567 20.398 A 21.959 21.959 0 0 1 51.6 20.08 Z M 40.32 28.48 L 39.52 23.52 L 29.04 23.52 L 26.48 28.48 L 19.32 28.48 L 34.44 0.4 L 42.36 0.4 L 47.56 28.48 L 40.32 28.48 Z M 31.72 18.32 L 38.72 18.32 L 37.08 7.92 L 31.72 18.32 Z M 0.96 0.4 L 22.68 0.4 L 21.76 5.8 L 14.28 5.8 L 10.28 28.48 L 3.44 28.48 L 7.44 5.8 L 0 5.8 L 0.96 0.4 Z M 108.36 0.4 L 115.2 0.4 L 110.24 28.48 L 103.4 28.48 L 108.36 0.4 Z M 120.16 0.4 L 127 0.4 L 122.04 28.48 L 115.2 28.48 L 120.16 0.4 Z" vector-effect="non-scaling-stroke"/></g></svg>